<svg xmlns="http://www.w3.org/2000/svg" viewBox="0 0 64 64" id="add-delivery">
  <path d="M36.66 46.15l-4 1.45a1 1 0 10.68 1.88l4-1.45a1 1 0 00-.68-1.88zM33 45.55a1 1 0 00.34-.06l2-.73a1 1 0 00-.68-1.88l-2 .73A1 1 0 0033 45.55z"></path>
  <path d="M59,35a11,11,0,0,0-8-10.57V18a1,1,0,0,0-.07-.35l0-.1a1,1,0,0,0-.14-.2l-.08-.08a1,1,0,0,0-.21-.14l-.08,0h0l-22-8a1,1,0,0,0-.68,0l-22,8h0l-.08,0a1,1,0,0,0-.21.14l-.08.08a1,1,0,0,0-.14.2l0,.1A1,1,0,0,0,5,18V48a1,1,0,0,0,.66.94l22,8h0A1,1,0,0,0,28,57h0a1,1,0,0,0,.3-.05h0l22-8A1,1,0,0,0,51,48V45.57A11,11,0,0,0,59,35ZM28,24.94l-3.52-1.28,17.9-7.32,0,0L47.07,18Zm-13-2.6,5,1.82v4.43l-2.29-2.29a1,1,0,0,0-1-.24L15,26.61Zm2-1.41,18.37-7a1,1,0,0,0,.2-.12l4.08,1.49-18,7.34Zm11-9.87,4.74,1.73-18.63,7.1L8.93,18ZM7,47.3V19.43l6,2.18V28a1,1,0,0,0,1.32.95l2.41-.8,3.56,3.56A1,1,0,0,0,22,31V24.88l5,1.82V54.57Zm42,0L29,54.57V26.7l20-7.27v4.62c-.33,0-.66-.05-1-.05a11,11,0,0,0,0,22c.34,0,.67,0,1-.05ZM48,44a9,9,0,1,1,9-9A9,9,0,0,1,48,44Z"></path>
  <path d="M52,34H49V31a1,1,0,0,0-2,0v3H44a1,1,0,0,0,0,2h3v3a1,1,0,0,0,2,0V36h3a1,1,0,0,0,0-2Z"></path>
</svg>
